<svg xmlns="http://www.w3.org/2000/svg" viewBox="0 0 750 500"><g id="freepik--background-complete--inject-6"><path d="M93.94,93.26c.46-3.37-4.29-6.14-7.86-6.43-1.7-.14-3.47.12-5.09-.44-3.49-1.22-4.89-5.73-8.3-7.17-2.55-1.08-5.48-.12-8,1.13s-4.91,2.81-7.67,3c-2.4.16-5-.73-7.11.44-1.57.87-2.39,2.68-3.83,3.74a9.23,9.23,0,0,1-5,1.36,14.19,14.19,0,0,0-5.16.84c-1.6.73-2.92,2.42-2.59,4.14Z" style="fill:#ebebeb"></path><path d="M598.58,59.61c.59-4.28-5.45-7.8-10-8.16-2.17-.18-4.41.15-6.46-.56-4.44-1.55-6.22-7.28-10.55-9.11-3.24-1.37-7-.15-10.11,1.43s-6.24,3.57-9.75,3.79c-3.05.2-6.37-.93-9,.56-2,1.11-3,3.4-4.86,4.75s-4.13,1.61-6.36,1.73-4.53.14-6.56,1.07-3.7,3.07-3.28,5.26Z" style="fill:#fafafa"></path><path d="M691.07,77.14c.47-3.37-4.28-6.14-7.85-6.43-1.71-.14-3.48.12-5.09-.44-3.5-1.22-4.89-5.73-8.3-7.17-2.55-1.08-5.49-.12-8,1.13s-4.91,2.81-7.68,3c-2.4.16-5-.74-7.11.44-1.56.87-2.38,2.68-3.83,3.74a9.17,9.17,0,0,1-5,1.36,14,14,0,0,0-5.17.84c-1.59.73-2.91,2.42-2.58,4.14Z" style="fill:#ebebeb"></path><polygon points="614.13 459.14 630.93 425.75 648.56 430.24 650.05 434.81 654.16 431.75 667.8 439.33 673.47 459.14 614.13 459.14" style="fill:#e0e0e0"></polygon><polygon points="574.24 439.18 604.26 439.18 592.74 417.69 574.24 439.18" style="fill:#e0e0e0"></polygon><path d="M691.18,459.6c0,.15-20.8.26-46.46.26s-46.46-.11-46.46-.26,20.8-.26,46.46-.26S691.18,459.46,691.18,459.6Z" style="fill:#e0e0e0"></path><path d="M608.33,439.17c0,.15-13.28.27-29.65.27s-29.65-.12-29.65-.27,13.27-.26,29.65-.26S608.33,439,608.33,439.17Z" style="fill:#e0e0e0"></path><polygon points="117.02 444.97 153.52 444.97 139.5 418.84 117.02 444.97" style="fill:#e0e0e0"></polygon><path d="M158.46,445c0,.14-16.14.26-36.05.26s-36-.12-36-.26,16.14-.26,36.05-.26S158.46,444.83,158.46,445Z" style="fill:#e0e0e0"></path><polygon points="199.34 460.86 225.21 409.44 252.35 416.36 254.66 423.39 260.99 418.68 281.98 430.36 290.71 460.86 199.34 460.86" style="fill:#e0e0e0"></polygon><path d="M318,460.86c0,.14-32,.26-71.54.26s-71.54-.12-71.54-.26,32-.26,71.54-.26S318,460.71,318,460.86Z" style="fill:#e0e0e0"></path><path d="M56.18,263.83c0-.14,145.56-.26,325.06-.26s325.09.12,325.09.26-145.52.26-325.09.26S56.18,264,56.18,263.83Z" style="fill:#e0e0e0"></path><rect x="444.09" y="70.18" width="37.85" height="119.94" style="fill:#f5f5f5"></rect><rect x="463.01" y="70.18" width="18.92" height="119.61" style="fill:#ebebeb"></rect><rect x="448.41" y="58.41" width="13.36" height="11.78" style="fill:#f5f5f5"></rect><rect x="458.59" y="58.41" width="3.19" height="11.78" style="fill:#ebebeb"></rect><polyline points="440.94 70.18 440.94 69.5 483.05 69.5 483.05 70.18" style="fill:#e0e0e0"></polyline><rect x="451.56" y="75.32" width="3.2" height="6.75" style="fill:#fafafa"></rect><path d="M463,84.73c0,.07-4.23.12-9.46.12s-9.46,0-9.46-.12,4.24-.13,9.46-.13S463,84.65,463,84.73Z" style="fill:#e0e0e0"></path><rect x="470.65" y="75.32" width="3.2" height="6.75" style="fill:#e0e0e0"></rect><path d="M482.1,84.73c0,.07-4.23.12-9.46.12s-9.46,0-9.46-.12,4.23-.13,9.46-.13S482.1,84.65,482.1,84.73Z" style="fill:#e0e0e0"></path><rect x="470.65" y="88.73" width="3.2" height="6.76" style="fill:#e0e0e0"></rect><path d="M482.1,98.14c0,.07-4.23.13-9.46.13s-9.46-.06-9.46-.13,4.23-.13,9.46-.13S482.1,98.07,482.1,98.14Z" style="fill:#e0e0e0"></path><rect x="470.65" y="102.55" width="3.2" height="6.75" style="fill:#e0e0e0"></rect><path d="M482.1,112c0,.07-4.23.13-9.46.13s-9.46-.06-9.46-.13,4.23-.13,9.46-.13S482.1,111.88,482.1,112Z" style="fill:#e0e0e0"></path><rect x="470.65" y="116.36" width="3.2" height="6.75" style="fill:#e0e0e0"></rect><path d="M482.1,125.77c0,.07-4.23.13-9.46.13s-9.46-.06-9.46-.13,4.23-.13,9.46-.13S482.1,125.7,482.1,125.77Z" style="fill:#e0e0e0"></path><rect x="470.65" y="129.78" width="3.2" height="6.75" style="fill:#e0e0e0"></rect><path d="M482.1,139.19c0,.07-4.23.13-9.46.13s-9.46-.06-9.46-.13,4.23-.13,9.46-.13S482.1,139.12,482.1,139.19Z" style="fill:#e0e0e0"></path><rect x="470.65" y="143.26" width="3.2" height="6.75" style="fill:#e0e0e0"></rect><rect x="470.65" y="156.91" width="3.2" height="6.76" style="fill:#e0e0e0"></rect><path d="M482.1,152.66c0,.07-4.23.13-9.46.13s-9.46-.06-9.46-.13,4.23-.13,9.46-.13S482.1,152.59,482.1,152.66Z" style="fill:#e0e0e0"></path><rect x="451.56" y="88.94" width="3.2" height="6.75" style="fill:#fafafa"></rect><path d="M463,98.34c0,.07-4.23.13-9.46.13s-9.46-.06-9.46-.13,4.24-.13,9.46-.13S463,98.27,463,98.34Z" style="fill:#e0e0e0"></path><rect x="451.56" y="102.55" width="3.2" height="6.76" style="fill:#fafafa"></rect><path d="M463,112c0,.07-4.23.13-9.46.13s-9.46-.06-9.46-.13,4.24-.13,9.46-.13S463,111.89,463,112Z" style="fill:#e0e0e0"></path><rect x="451.56" y="116.17" width="3.2" height="6.75" style="fill:#fafafa"></rect><path d="M463,125.57c0,.07-4.23.13-9.46.13s-9.46-.06-9.46-.13,4.24-.13,9.46-.13S463,125.5,463,125.57Z" style="fill:#e0e0e0"></path><rect x="451.56" y="129.78" width="3.2" height="6.75" style="fill:#fafafa"></rect><path d="M463,139.19c0,.07-4.23.13-9.46.13s-9.46-.06-9.46-.13,4.24-.13,9.46-.13S463,139.12,463,139.19Z" style="fill:#e0e0e0"></path><rect x="451.56" y="143.4" width="3.2" height="6.76" style="fill:#fafafa"></rect><path d="M463,152.8c0,.08-4.23.13-9.46.13s-9.46-.05-9.46-.13,4.24-.12,9.46-.12S463,152.73,463,152.8Z" style="fill:#e0e0e0"></path><rect x="451.56" y="157.01" width="3.2" height="6.75" style="fill:#fafafa"></rect><rect x="258.06" y="58.43" width="44.72" height="141.74" style="fill:#f5f5f5"></rect><rect x="280.42" y="58.43" width="22.36" height="141.35" style="fill:#ebebeb"></rect><rect x="263.16" y="44.51" width="15.79" height="13.92" style="fill:#f5f5f5"></rect><rect x="275.19" y="44.51" width="3.76" height="13.92" style="fill:#ebebeb"></rect><polyline points="254.33 58.43 254.33 57.62 304.09 57.62 304.09 58.43" style="fill:#e0e0e0"></polyline><rect x="266.88" y="64.5" width="3.79" height="7.98" style="fill:#fafafa"></rect><path d="M280.42,75.61c0,.09-5,.16-11.18.16s-11.18-.07-11.18-.16,5-.15,11.18-.15S280.42,75.53,280.42,75.61Z" style="fill:#e0e0e0"></path><rect x="289.44" y="64.5" width="3.79" height="7.98" style="fill:#e0e0e0"></rect><path d="M303,75.61c0,.09-5,.16-11.18.16s-11.18-.07-11.18-.16,5-.15,11.18-.15S303,75.53,303,75.61Z" style="fill:#e0e0e0"></path><rect x="289.44" y="80.35" width="3.79" height="7.98" style="fill:#e0e0e0"></rect><path d="M303,91.46c0,.09-5,.15-11.18.15s-11.18-.06-11.18-.15,5-.15,11.18-.15S303,91.38,303,91.46Z" style="fill:#e0e0e0"></path><rect x="289.44" y="96.67" width="3.79" height="7.98" style="fill:#e0e0e0"></rect><path d="M303,107.79c0,.08-5,.15-11.18.15s-11.18-.07-11.18-.15,5-.15,11.18-.15S303,107.7,303,107.79Z" style="fill:#e0e0e0"></path><rect x="289.44" y="113" width="3.79" height="7.98" style="fill:#e0e0e0"></rect><path d="M303,124.12c0,.08-5,.15-11.18.15s-11.18-.07-11.18-.15,5-.16,11.18-.16S303,124,303,124.12Z" style="fill:#e0e0e0"></path><rect x="289.44" y="128.86" width="3.79" height="7.98" style="fill:#e0e0e0"></rect><path d="M303,140c0,.09-5,.16-11.18.16s-11.18-.07-11.18-.16,5-.15,11.18-.15S303,139.89,303,140Z" style="fill:#e0e0e0"></path><rect x="289.44" y="144.78" width="3.79" height="7.98" style="fill:#e0e0e0"></rect><rect x="289.44" y="160.92" width="3.79" height="7.98" style="fill:#e0e0e0"></rect><path d="M303,155.9c0,.08-5,.15-11.18.15s-11.18-.07-11.18-.15,5-.15,11.18-.15S303,155.81,303,155.9Z" style="fill:#e0e0e0"></path><rect x="266.88" y="80.59" width="3.79" height="7.98" style="fill:#fafafa"></rect><path d="M280.42,91.7c0,.09-5,.16-11.18.16s-11.18-.07-11.18-.16,5-.15,11.18-.15S280.42,91.62,280.42,91.7Z" style="fill:#e0e0e0"></path><rect x="266.88" y="96.68" width="3.79" height="7.98" style="fill:#fafafa"></rect><path d="M280.42,107.79c0,.09-5,.16-11.18.16s-11.18-.07-11.18-.16,5-.15,11.18-.15S280.42,107.71,280.42,107.79Z" style="fill:#e0e0e0"></path><rect x="266.88" y="112.77" width="3.79" height="7.98" style="fill:#fafafa"></rect><path d="M280.42,123.88c0,.09-5,.16-11.18.16s-11.18-.07-11.18-.16,5-.15,11.18-.15S280.42,123.8,280.42,123.88Z" style="fill:#e0e0e0"></path><rect x="266.88" y="128.86" width="3.79" height="7.98" style="fill:#fafafa"></rect><path d="M280.42,140c0,.09-5,.16-11.18.16s-11.18-.07-11.18-.16,5-.15,11.18-.15S280.42,139.89,280.42,140Z" style="fill:#e0e0e0"></path><rect x="266.88" y="144.95" width="3.79" height="7.98" style="fill:#fafafa"></rect><path d="M280.42,156.07c0,.08-5,.15-11.18.15s-11.18-.07-11.18-.15,5-.16,11.18-.16S280.42,156,280.42,156.07Z" style="fill:#e0e0e0"></path><rect x="266.88" y="161.04" width="3.79" height="7.98" style="fill:#fafafa"></rect><rect x="481.22" y="123.57" width="44.72" height="141.74" style="fill:#f5f5f5"></rect><rect x="503.58" y="123.57" width="22.36" height="141.35" style="fill:#ebebeb"></rect><rect x="486.33" y="109.65" width="15.79" height="13.92" style="fill:#f5f5f5"></rect><rect x="498.36" y="109.65" width="3.76" height="13.92" style="fill:#ebebeb"></rect><polyline points="477.5 123.57 477.5 122.76 527.26 122.76 527.26 123.57" style="fill:#e0e0e0"></polyline><rect x="490.05" y="129.64" width="3.79" height="7.98" style="fill:#fafafa"></rect><path d="M503.58,140.75c0,.09-5,.16-11.18.16s-11.18-.07-11.18-.16,5-.15,11.18-.15S503.58,140.67,503.58,140.75Z" style="fill:#e0e0e0"></path><rect x="512.61" y="129.64" width="3.79" height="7.98" style="fill:#e0e0e0"></rect><path d="M526.14,140.75c0,.09-5,.16-11.18.16s-11.18-.07-11.18-.16,5-.15,11.18-.15S526.14,140.67,526.14,140.75Z" style="fill:#e0e0e0"></path><rect x="512.61" y="145.49" width="3.79" height="7.98" style="fill:#e0e0e0"></rect><path d="M526.14,156.6c0,.09-5,.16-11.18.16s-11.18-.07-11.18-.16,5-.15,11.18-.15S526.14,156.52,526.14,156.6Z" style="fill:#e0e0e0"></path><rect x="512.61" y="161.81" width="3.79" height="7.98" style="fill:#e0e0e0"></rect><path d="M526.14,172.93c0,.08-5,.15-11.18.15s-11.18-.07-11.18-.15,5-.15,11.18-.15S526.14,172.85,526.14,172.93Z" style="fill:#e0e0e0"></path><rect x="512.61" y="178.14" width="3.79" height="7.98" style="fill:#e0e0e0"></rect><path d="M526.14,189.26c0,.08-5,.15-11.18.15s-11.18-.07-11.18-.15,5-.16,11.18-.16S526.14,189.17,526.14,189.26Z" style="fill:#e0e0e0"></path><rect x="512.61" y="194" width="3.79" height="7.98" style="fill:#e0e0e0"></rect><path d="M526.14,205.12c0,.08-5,.15-11.18.15s-11.18-.07-11.18-.15,5-.16,11.18-.16S526.14,205,526.14,205.12Z" style="fill:#e0e0e0"></path><rect x="512.61" y="209.93" width="3.79" height="7.98" style="fill:#e0e0e0"></rect><rect x="512.61" y="226.06" width="3.79" height="7.98" style="fill:#e0e0e0"></rect><path d="M526.14,221c0,.09-5,.15-11.18.15s-11.18-.06-11.18-.15,5-.15,11.18-.15S526.14,221,526.14,221Z" style="fill:#e0e0e0"></path><rect x="490.05" y="145.73" width="3.79" height="7.98" style="fill:#fafafa"></rect><path d="M503.58,156.85c0,.08-5,.15-11.18.15s-11.18-.07-11.18-.15,5-.16,11.18-.16S503.58,156.76,503.58,156.85Z" style="fill:#e0e0e0"></path><rect x="490.05" y="161.82" width="3.79" height="7.98" style="fill:#fafafa"></rect><path d="M503.58,172.94c0,.08-5,.15-11.18.15s-11.18-.07-11.18-.15,5-.16,11.18-.16S503.58,172.85,503.58,172.94Z" style="fill:#e0e0e0"></path><rect x="490.05" y="177.91" width="3.79" height="7.98" style="fill:#fafafa"></rect><path d="M503.58,189c0,.08-5,.15-11.18.15s-11.18-.07-11.18-.15,5-.16,11.18-.16S503.58,188.94,503.58,189Z" style="fill:#e0e0e0"></path><rect x="490.05" y="194" width="3.79" height="7.98" style="fill:#fafafa"></rect><path d="M503.58,205.12c0,.08-5,.15-11.18.15s-11.18-.07-11.18-.15,5-.16,11.18-.16S503.58,205,503.58,205.12Z" style="fill:#e0e0e0"></path><rect x="490.05" y="210.09" width="3.79" height="7.98" style="fill:#fafafa"></rect><path d="M503.58,221.21c0,.08-5,.15-11.18.15s-11.18-.07-11.18-.15,5-.15,11.18-.15S503.58,221.12,503.58,221.21Z" style="fill:#e0e0e0"></path><rect x="490.05" y="226.18" width="3.79" height="7.98" style="fill:#fafafa"></rect><rect x="210.87" y="122.75" width="44.72" height="141.74" style="fill:#f5f5f5"></rect><rect x="233.23" y="122.75" width="22.36" height="141.35" style="fill:#ebebeb"></rect><rect x="215.97" y="108.83" width="15.79" height="13.92" style="fill:#f5f5f5"></rect><rect x="228" y="108.83" width="3.76" height="13.92" style="fill:#ebebeb"></rect><polyline points="207.14 122.75 207.14 121.94 256.9 121.94 256.9 122.75" style="fill:#e0e0e0"></polyline><rect x="219.69" y="128.82" width="3.79" height="7.98" style="fill:#fafafa"></rect><path d="M233.23,139.93c0,.09-5,.15-11.18.15s-11.18-.06-11.18-.15,5-.15,11.18-.15S233.23,139.85,233.23,139.93Z" style="fill:#e0e0e0"></path><rect x="242.25" y="128.82" width="3.79" height="7.98" style="fill:#e0e0e0"></rect><path d="M255.79,139.93c0,.09-5,.15-11.19.15s-11.18-.06-11.18-.15,5-.15,11.18-.15S255.79,139.85,255.79,139.93Z" style="fill:#e0e0e0"></path><rect x="242.25" y="144.67" width="3.79" height="7.98" style="fill:#e0e0e0"></rect><path d="M255.79,155.78c0,.09-5,.15-11.19.15s-11.18-.06-11.18-.15,5-.15,11.18-.15S255.79,155.7,255.79,155.78Z" style="fill:#e0e0e0"></path><rect x="242.25" y="160.99" width="3.79" height="7.98" style="fill:#e0e0e0"></rect><path d="M255.79,172.11c0,.08-5,.15-11.19.15s-11.18-.07-11.18-.15,5-.15,11.18-.15S255.79,172,255.79,172.11Z" style="fill:#e0e0e0"></path><rect x="242.25" y="177.32" width="3.79" height="7.98" style="fill:#e0e0e0"></rect><path d="M255.79,188.43c0,.09-5,.16-11.19.16s-11.18-.07-11.18-.16,5-.15,11.18-.15S255.79,188.35,255.79,188.43Z" style="fill:#e0e0e0"></path><rect x="242.25" y="193.18" width="3.79" height="7.98" style="fill:#e0e0e0"></rect><path d="M255.79,204.29c0,.09-5,.16-11.19.16s-11.18-.07-11.18-.16,5-.15,11.18-.15S255.79,204.21,255.79,204.29Z" style="fill:#e0e0e0"></path><rect x="242.25" y="209.1" width="3.79" height="7.98" style="fill:#e0e0e0"></rect><rect x="242.25" y="225.24" width="3.79" height="7.98" style="fill:#e0e0e0"></rect><path d="M255.79,220.22c0,.08-5,.15-11.19.15s-11.18-.07-11.18-.15,5-.15,11.18-.15S255.79,220.13,255.79,220.22Z" style="fill:#e0e0e0"></path><rect x="219.69" y="144.91" width="3.79" height="7.98" style="fill:#fafafa"></rect><path d="M233.23,156c0,.09-5,.16-11.18.16s-11.18-.07-11.18-.16,5-.15,11.18-.15S233.23,155.94,233.23,156Z" style="fill:#e0e0e0"></path><rect x="219.69" y="161" width="3.79" height="7.98" style="fill:#fafafa"></rect><path d="M233.23,172.11c0,.09-5,.16-11.18.16s-11.18-.07-11.18-.16,5-.15,11.18-.15S233.23,172,233.23,172.11Z" style="fill:#e0e0e0"></path><rect x="219.69" y="177.09" width="3.79" height="7.98" style="fill:#fafafa"></rect><path d="M233.23,188.2c0,.09-5,.16-11.18.16s-11.18-.07-11.18-.16,5-.15,11.18-.15S233.23,188.12,233.23,188.2Z" style="fill:#e0e0e0"></path><rect x="219.69" y="193.18" width="3.79" height="7.98" style="fill:#fafafa"></rect><path d="M233.23,204.29c0,.09-5,.16-11.18.16s-11.18-.07-11.18-.16,5-.15,11.18-.15S233.23,204.21,233.23,204.29Z" style="fill:#e0e0e0"></path><rect x="219.69" y="209.27" width="3.79" height="7.98" style="fill:#fafafa"></rect><path d="M233.23,220.39c0,.08-5,.15-11.18.15s-11.18-.07-11.18-.15,5-.16,11.18-.16S233.23,220.3,233.23,220.39Z" style="fill:#e0e0e0"></path><rect x="219.69" y="225.36" width="3.79" height="7.98" style="fill:#fafafa"></rect><rect x="40.32" y="143.58" width="44.73" height="121.09" style="fill:#f5f5f5"></rect><rect x="62.69" y="143.58" width="22.36" height="121.09" style="fill:#ebebeb"></rect><rect x="45.43" y="129.67" width="15.79" height="13.92" style="fill:#f5f5f5"></rect><rect x="57.46" y="129.67" width="3.76" height="13.92" style="fill:#ebebeb"></rect><polyline points="36.6 143.58 36.6 142.77 86.36 142.77 86.36 143.58" style="fill:#e0e0e0"></polyline><rect x="49.15" y="149.65" width="3.79" height="7.98" style="fill:#fafafa"></rect><path d="M62.69,160.77c0,.08-5,.15-11.18.15s-11.19-.07-11.19-.15,5-.15,11.19-.15S62.69,160.68,62.69,160.77Z" style="fill:#e0e0e0"></path><rect x="71.71" y="149.65" width="3.79" height="7.98" style="fill:#e0e0e0"></rect><path d="M85.24,160.77c0,.08-5,.15-11.18.15s-11.18-.07-11.18-.15,5-.15,11.18-.15S85.24,160.68,85.24,160.77Z" style="fill:#e0e0e0"></path><rect x="71.71" y="165.5" width="3.79" height="7.98" style="fill:#e0e0e0"></rect><path d="M85.24,176.62c0,.08-5,.15-11.18.15s-11.18-.07-11.18-.15,5-.16,11.18-.16S85.24,176.53,85.24,176.62Z" style="fill:#e0e0e0"></path><rect x="71.71" y="181.83" width="3.79" height="7.98" style="fill:#e0e0e0"></rect><path d="M85.24,192.94c0,.09-5,.16-11.18.16s-11.18-.07-11.18-.16,5-.15,11.18-.15S85.24,192.86,85.24,192.94Z" style="fill:#e0e0e0"></path><rect x="71.71" y="198.15" width="3.79" height="7.98" style="fill:#e0e0e0"></rect><path d="M85.24,209.27c0,.08-5,.15-11.18.15s-11.18-.07-11.18-.15,5-.15,11.18-.15S85.24,209.19,85.24,209.27Z" style="fill:#e0e0e0"></path><rect x="71.71" y="214.01" width="3.79" height="7.98" style="fill:#e0e0e0"></rect><path d="M85.24,225.13c0,.08-5,.15-11.18.15s-11.18-.07-11.18-.15,5-.15,11.18-.15S85.24,225.05,85.24,225.13Z" style="fill:#e0e0e0"></path><rect x="71.71" y="229.94" width="3.79" height="7.98" style="fill:#e0e0e0"></rect><rect x="71.71" y="246.07" width="3.79" height="7.98" style="fill:#e0e0e0"></rect><path d="M85.24,241.05c0,.09-5,.16-11.18.16s-11.18-.07-11.18-.16,5-.15,11.18-.15S85.24,241,85.24,241.05Z" style="fill:#e0e0e0"></path><rect x="49.15" y="165.74" width="3.79" height="7.98" style="fill:#fafafa"></rect><path d="M62.69,176.86c0,.08-5,.15-11.18.15s-11.19-.07-11.19-.15,5-.15,11.19-.15S62.69,176.77,62.69,176.86Z" style="fill:#e0e0e0"></path><rect x="49.15" y="181.83" width="3.79" height="7.98" style="fill:#fafafa"></rect><path d="M62.69,193c0,.08-5,.15-11.18.15S40.32,193,40.32,193s5-.15,11.19-.15S62.69,192.86,62.69,193Z" style="fill:#e0e0e0"></path><rect x="49.15" y="197.92" width="3.79" height="7.98" style="fill:#fafafa"></rect><path d="M62.69,209c0,.08-5,.15-11.18.15s-11.19-.07-11.19-.15,5-.15,11.19-.15S62.69,209,62.69,209Z" style="fill:#e0e0e0"></path><rect x="49.15" y="214.01" width="3.79" height="7.98" style="fill:#fafafa"></rect><path d="M62.69,225.13c0,.08-5,.15-11.18.15s-11.19-.07-11.19-.15,5-.15,11.19-.15S62.69,225.05,62.69,225.13Z" style="fill:#e0e0e0"></path><rect x="49.15" y="230.11" width="3.79" height="7.98" style="fill:#fafafa"></rect><path d="M62.69,241.22c0,.08-5,.15-11.18.15s-11.19-.07-11.19-.15,5-.15,11.19-.15S62.69,241.14,62.69,241.22Z" style="fill:#e0e0e0"></path><rect x="49.15" y="246.2" width="3.79" height="7.98" style="fill:#fafafa"></rect><rect x="651.95" y="122.75" width="44.72" height="141.74" style="fill:#f5f5f5"></rect><rect x="674.31" y="122.75" width="22.36" height="141.35" style="fill:#ebebeb"></rect><rect x="657.06" y="108.83" width="15.79" height="13.92" style="fill:#f5f5f5"></rect><rect x="669.08" y="108.83" width="3.76" height="13.92" style="fill:#ebebeb"></rect><polyline points="648.22 122.75 648.22 121.94 697.98 121.94 697.98 122.75" style="fill:#e0e0e0"></polyline><rect x="660.78" y="128.82" width="3.79" height="7.98" style="fill:#fafafa"></rect><path d="M674.31,139.93c0,.09-5,.15-11.18.15S652,140,652,139.93s5-.15,11.18-.15S674.31,139.85,674.31,139.93Z" style="fill:#e0e0e0"></path><rect x="683.33" y="128.82" width="3.79" height="7.98" style="fill:#e0e0e0"></rect><path d="M696.87,139.93c0,.09-5,.15-11.18.15s-11.18-.06-11.18-.15,5-.15,11.18-.15S696.87,139.85,696.87,139.93Z" style="fill:#e0e0e0"></path><rect x="683.33" y="144.67" width="3.79" height="7.98" style="fill:#e0e0e0"></rect><path d="M696.87,155.78c0,.09-5,.15-11.18.15s-11.18-.06-11.18-.15,5-.15,11.18-.15S696.87,155.7,696.87,155.78Z" style="fill:#e0e0e0"></path><rect x="683.33" y="160.99" width="3.79" height="7.98" style="fill:#e0e0e0"></rect><path d="M696.87,172.11c0,.08-5,.15-11.18.15s-11.18-.07-11.18-.15,5-.15,11.18-.15S696.87,172,696.87,172.11Z" style="fill:#e0e0e0"></path><rect x="683.33" y="177.32" width="3.79" height="7.98" style="fill:#e0e0e0"></rect><path d="M696.87,188.43c0,.09-5,.16-11.18.16s-11.18-.07-11.18-.16,5-.15,11.18-.15S696.87,188.35,696.87,188.43Z" style="fill:#e0e0e0"></path><rect x="683.33" y="193.18" width="3.79" height="7.98" style="fill:#e0e0e0"></rect><path d="M696.87,204.29c0,.09-5,.16-11.18.16s-11.18-.07-11.18-.16,5-.15,11.18-.15S696.87,204.21,696.87,204.29Z" style="fill:#e0e0e0"></path><rect x="683.33" y="209.1" width="3.79" height="7.98" style="fill:#e0e0e0"></rect><rect x="683.33" y="225.24" width="3.79" height="7.98" style="fill:#e0e0e0"></rect><path d="M696.87,220.22c0,.08-5,.15-11.18.15s-11.18-.07-11.18-.15,5-.15,11.18-.15S696.87,220.13,696.87,220.22Z" style="fill:#e0e0e0"></path><rect x="660.78" y="144.91" width="3.79" height="7.98" style="fill:#fafafa"></rect><path d="M674.31,156c0,.09-5,.16-11.18.16S652,156.11,652,156s5-.15,11.18-.15S674.31,155.94,674.31,156Z" style="fill:#e0e0e0"></path><rect x="660.78" y="161" width="3.79" height="7.98" style="fill:#fafafa"></rect><path d="M674.31,172.11c0,.09-5,.16-11.18.16S652,172.2,652,172.11s5-.15,11.18-.15S674.31,172,674.31,172.11Z" style="fill:#e0e0e0"></path><rect x="660.78" y="177.09" width="3.79" height="7.98" style="fill:#fafafa"></rect><path d="M674.31,188.2c0,.09-5,.16-11.18.16S652,188.29,652,188.2s5-.15,11.18-.15S674.31,188.12,674.31,188.2Z" style="fill:#e0e0e0"></path><rect x="660.78" y="193.18" width="3.79" height="7.98" style="fill:#fafafa"></rect><path d="M674.31,204.29c0,.09-5,.16-11.18.16s-11.18-.07-11.18-.16,5-.15,11.18-.15S674.31,204.21,674.31,204.29Z" style="fill:#e0e0e0"></path><rect x="660.78" y="209.27" width="3.79" height="7.98" style="fill:#fafafa"></rect><path d="M674.31,220.39c0,.08-5,.15-11.18.15s-11.18-.07-11.18-.15,5-.16,11.18-.16S674.31,220.3,674.31,220.39Z" style="fill:#e0e0e0"></path><rect x="660.78" y="225.36" width="3.79" height="7.98" style="fill:#fafafa"></rect><polygon points="304.91 263.92 246.69 263.92 246.44 171.91 304.65 171.91 304.91 263.92" style="fill:#f5f5f5"></polygon><rect x="275.55" y="171.91" width="29.11" height="92" style="fill:#ebebeb"></rect><rect x="253.09" y="153.8" width="20.56" height="18.11" style="fill:#f5f5f5"></rect><rect x="268.74" y="153.8" width="4.9" height="18.11" style="fill:#ebebeb"></rect><rect x="241.59" y="170.86" width="64.77" height="1.06" style="fill:#e0e0e0"></rect><rect x="257.93" y="179.81" width="4.93" height="10.39" style="fill:#fff"></rect><path d="M275.55,194.28c0,.11-6.52.2-14.56.2s-14.55-.09-14.55-.2,6.52-.2,14.55-.2S275.55,194.17,275.55,194.28Z" style="fill:#e0e0e0"></path><rect x="287.29" y="179.81" width="4.93" height="10.39" style="fill:#f5f5f5"></rect><path d="M304.91,194.28c0,.11-6.52.2-14.56.2s-14.55-.09-14.55-.2,6.52-.2,14.55-.2S304.91,194.17,304.91,194.28Z" style="fill:#e0e0e0"></path><rect x="287.29" y="200.44" width="4.93" height="10.39" style="fill:#f5f5f5"></rect><path d="M304.91,214.91c0,.11-6.52.2-14.56.2s-14.55-.09-14.55-.2,6.52-.2,14.55-.2S304.91,214.8,304.91,214.91Z" style="fill:#e0e0e0"></path><rect x="287.29" y="221.69" width="4.93" height="10.39" style="fill:#f5f5f5"></rect><path d="M304.91,236.16c0,.11-6.52.2-14.56.2s-14.55-.09-14.55-.2,6.52-.2,14.55-.2S304.91,236.05,304.91,236.16Z" style="fill:#e0e0e0"></path><rect x="287.29" y="242.94" width="4.93" height="10.39" style="fill:#f5f5f5"></rect><path d="M304.91,257.41c0,.11-6.52.2-14.56.2s-14.55-.09-14.55-.2,6.52-.2,14.55-.2S304.91,257.3,304.91,257.41Z" style="fill:#e0e0e0"></path><rect x="257.93" y="200.76" width="4.93" height="10.39" style="fill:#fff"></rect><path d="M275.55,215.22c0,.11-6.52.2-14.56.2s-14.55-.09-14.55-.2S253,215,261,215,275.55,215.11,275.55,215.22Z" style="fill:#e0e0e0"></path><rect x="257.93" y="221.7" width="4.93" height="10.39" style="fill:#fff"></rect><path d="M275.55,236.17c0,.11-6.52.19-14.56.19s-14.55-.08-14.55-.19S253,236,261,236,275.55,236.06,275.55,236.17Z" style="fill:#e0e0e0"></path><rect x="257.93" y="242.64" width="4.93" height="10.39" style="fill:#fff"></rect><path d="M275.55,257.11c0,.11-6.52.2-14.56.2s-14.55-.09-14.55-.2,6.52-.2,14.55-.2S275.55,257,275.55,257.11Z" style="fill:#e0e0e0"></path><polygon points="492.29 263.92 434.07 263.92 433.82 171.91 492.03 171.91 492.29 263.92" style="fill:#f5f5f5"></polygon><rect x="462.93" y="171.91" width="29.11" height="92" style="fill:#ebebeb"></rect><rect x="440.47" y="153.8" width="20.56" height="18.11" style="fill:#f5f5f5"></rect><rect x="456.12" y="153.8" width="4.9" height="18.11" style="fill:#ebebeb"></rect><rect x="428.97" y="170.86" width="64.77" height="1.06" style="fill:#e0e0e0"></rect><rect x="445.31" y="179.81" width="4.93" height="10.39" style="fill:#fff"></rect><path d="M462.93,194.28c0,.11-6.52.2-14.56.2s-14.55-.09-14.55-.2,6.51-.2,14.55-.2S462.93,194.17,462.93,194.28Z" style="fill:#e0e0e0"></path><rect x="474.67" y="179.81" width="4.93" height="10.39" style="fill:#f5f5f5"></rect><path d="M492.29,194.28c0,.11-6.52.2-14.56.2s-14.55-.09-14.55-.2,6.51-.2,14.55-.2S492.29,194.17,492.29,194.28Z" style="fill:#e0e0e0"></path><rect x="474.67" y="200.44" width="4.93" height="10.39" style="fill:#f5f5f5"></rect><path d="M492.29,214.91c0,.11-6.52.2-14.56.2s-14.55-.09-14.55-.2,6.51-.2,14.55-.2S492.29,214.8,492.29,214.91Z" style="fill:#e0e0e0"></path><rect x="474.67" y="221.69" width="4.93" height="10.39" style="fill:#f5f5f5"></rect><path d="M492.29,236.16c0,.11-6.52.2-14.56.2s-14.55-.09-14.55-.2,6.51-.2,14.55-.2S492.29,236.05,492.29,236.16Z" style="fill:#e0e0e0"></path><rect x="474.67" y="242.94" width="4.93" height="10.39" style="fill:#f5f5f5"></rect><path d="M492.29,257.41c0,.11-6.52.2-14.56.2s-14.55-.09-14.55-.2,6.51-.2,14.55-.2S492.29,257.3,492.29,257.41Z" style="fill:#e0e0e0"></path><rect x="445.31" y="200.76" width="4.93" height="10.39" style="fill:#fff"></rect><path d="M462.93,215.22c0,.11-6.52.2-14.56.2s-14.55-.09-14.55-.2,6.51-.2,14.55-.2S462.93,215.11,462.93,215.22Z" style="fill:#e0e0e0"></path><rect x="445.31" y="221.7" width="4.93" height="10.39" style="fill:#fff"></rect><path d="M462.93,236.17c0,.11-6.52.19-14.56.19s-14.55-.08-14.55-.19,6.51-.2,14.55-.2S462.93,236.06,462.93,236.17Z" style="fill:#e0e0e0"></path><rect x="445.31" y="242.64" width="4.93" height="10.39" style="fill:#fff"></rect><path d="M462.93,257.11c0,.11-6.52.2-14.56.2s-14.55-.09-14.55-.2,6.51-.2,14.55-.2S462.93,257,462.93,257.11Z" style="fill:#e0e0e0"></path><path d="M522.88,264.49c0,.11-76.3.2-170.39.2s-170.4-.09-170.4-.2,76.28-.2,170.4-.2S522.88,264.38,522.88,264.49Z" style="fill:#e0e0e0"></path></g><g id="freepik--Floor--inject-6"><path d="M717.84,405.29c0,.14-153.51.26-342.82.26s-342.86-.12-342.86-.26S185.63,405,375,405,717.84,405.14,717.84,405.29Z" style="fill:#263238"></path></g><g id="freepik--Plant--inject-6"><path d="M343.74,429.39a5.63,5.63,0,0,1,2.9,3.28,10,10,0,0,1,.38,4.45,17.52,17.52,0,0,1-3.73,8.11c-2.44-2.12-3-5.82-3.16-7.72-.26-3,1.08-8.57,3.61-8.12" style="fill:#FF725E"></path><path d="M346.11,450a4.76,4.76,0,0,1,1.54-4.53,6.34,6.34,0,0,1,4.68-1.46,2.66,2.66,0,0,1,2.05.92,2,2,0,0,1,0,2.07,4.11,4.11,0,0,1-1.53,1.51c-2.1,1.32-4.39,2.21-6.77,1.49" style="fill:#FF725E"></path><path d="M343,458.85a3.77,3.77,0,0,1,.09-.59l.3-1.61a16.49,16.49,0,0,1,1.65-5.12,10.22,10.22,0,0,1,3.68-3.91,7.43,7.43,0,0,1,1.49-.66c.19-.06.34-.08.44-.11l.15,0a11.28,11.28,0,0,0-2,.92,10.63,10.63,0,0,0-3.57,3.88,18.29,18.29,0,0,0-1.69,5.05c-.15.67-.27,1.22-.36,1.59A2.38,2.38,0,0,1,343,458.85Z" style="fill:#263238"></path><path d="M343.09,433.72l0,.26,0,.75c0,.64.07,1.58.11,2.73.07,2.32.13,5.52.12,9.05s-.1,6.73-.2,9c-.05,1.16-.09,2.09-.13,2.74,0,.3,0,.55-.05.74l0,.26a.76.76,0,0,1,0-.26c0-.19,0-.44,0-.74,0-.68,0-1.61.06-2.74.06-2.32.12-5.51.14-9s0-6.73-.06-9c0-1.14,0-2.07,0-2.74V434A.76.76,0,0,1,343.09,433.72Z" style="fill:#263238"></path><path d="M341.91,451.75a11.2,11.2,0,0,0-6.1-8.18,2.36,2.36,0,0,0-2.54,0,2.32,2.32,0,0,0-.19,2.54,9.54,9.54,0,0,0,8.77,5.92" style="fill:#FF725E"></path><path d="M336.2,446.31a3.21,3.21,0,0,1,.52.23,4.27,4.27,0,0,1,.58.31,8.46,8.46,0,0,1,.74.46,10.5,10.5,0,0,1,.85.64c.3.24.6.52.91.82a12.31,12.31,0,0,1,1.71,2.21,11.59,11.59,0,0,1,1.13,2.56,10.1,10.1,0,0,1,.29,1.18c.08.38.11.73.15,1.06s0,.62,0,.87a6.44,6.44,0,0,1,0,.66,2.37,2.37,0,0,1-.07.56s0-.8-.1-2.08a8.48,8.48,0,0,0-.17-1c-.07-.37-.18-.76-.3-1.17a12,12,0,0,0-2.8-4.68,10.86,10.86,0,0,0-.88-.82c-.28-.26-.57-.46-.82-.66C336.91,446.69,336.18,446.35,336.2,446.31Z" style="fill:#263238"></path></g><g id="freepik--airplane-part-2--inject-6"><path d="M245.49,320.53,43.65,257.87a11.15,11.15,0,0,0-10.21,19.4C57.07,295.91,145,364,196.36,386.49l3.89-19.57,13.22-11.33,6.72-16Z" style="fill:#fff"></path><path d="M245.49,320.53l-25.22,19.11,0-.05-6.7,16.05v0l0,0-13.21,11.35.06-.1c-1.22,6.13-2.51,12.68-3.88,19.58l0,.24-.22-.1a348.94,348.94,0,0,1-33.1-17.41c-11.49-6.82-23.45-14.49-35.83-22.76-24.7-16.65-51-35.78-78-56.53l-10.68-8.28-5.27-4.14a11.37,11.37,0,0,1-4-12.11,11.31,11.31,0,0,1,3.55-5.57,11.43,11.43,0,0,1,6-2.66,10.93,10.93,0,0,1,3.28.06,22.63,22.63,0,0,1,3.14.85l47.12,14.65,79.76,24.86,73.29,22.9-73.6-22.7L92.2,273.18l-47-14.58a22.71,22.71,0,0,0-3.06-.82,10.33,10.33,0,0,0-3.14-.06A10.9,10.9,0,0,0,30,271.93c1.24,4.32,5.62,6.47,9,9.35l10.68,8.27c27,20.75,53.29,39.89,78,56.55,12.37,8.27,24.31,15.95,35.79,22.78a351,351,0,0,0,33,17.44l-.26.13c1.37-6.89,2.68-13.44,3.91-19.57v-.06l0,0,13.24-11.31,0,.06c2.49-5.92,4.76-11.32,6.75-16v0l0,0Z" style="fill:#263238"></path><path d="M69.51,129.77,63.08,264.12,158.7,293.8,101.28,153a34.84,34.84,0,0,0-21.94-20.13Z" style="fill:#FF725E"></path><path d="M45.68,240.42l15.19,40.14,52,28.58L67.63,253.76S58,240.82,45.68,240.42Z" style="fill:#FF725E"></path><path d="M45.68,240.42l.48,0,1.49.1c.66.06,1.44.27,2.38.45.46.12.94.29,1.47.45l.81.26.83.35c4.59,1.85,10.64,6.17,16,13.26L113.1,309l.85,1-1.18-.65-1.88-1L60.77,280.74l-.07,0,0-.08c-4.56-12.18-8.33-22.25-11-29.3-1.29-3.48-2.31-6.21-3-8.09l-.77-2.11c-.18-.48-.25-.71-.25-.71s.11.26.3.74.47,1.22.83,2.15c.73,1.88,1.78,4.62,3.13,8.11,2.67,7,6.5,17,11.13,29.06l-.1-.11,50.17,27.51,1.88,1-.32.39c-17.17-21-32.64-40-43.84-53.75-5.31-7.09-11.27-11.41-15.8-13.3l-.82-.36-.8-.27c-.52-.17-1-.35-1.45-.47-.93-.19-1.71-.42-2.34-.49l-1.45-.17Z" style="fill:#263238"></path><path d="M101.09,301a5.46,5.46,0,0,1-.57-.58L99,298.65c-1.33-1.5-3.26-3.69-5.59-6.43s-5.08-6-8-9.79-6-8-9.12-12.51a147.88,147.88,0,0,0-9.41-12.24A61.35,61.35,0,0,0,57.72,249a41.91,41.91,0,0,0-7.23-4.42c-.91-.43-1.62-.74-2.11-.94a4.25,4.25,0,0,1-.74-.33,3.93,3.93,0,0,1,.77.23c.51.17,1.24.46,2.17.85a39.43,39.43,0,0,1,7.36,4.32,59.42,59.42,0,0,1,9.26,8.63,142.19,142.19,0,0,1,9.48,12.26c3.17,4.48,6.16,8.76,9.07,12.52s5.61,7.08,7.91,9.84l5.47,6.54,1.47,1.79A4.73,4.73,0,0,1,101.09,301Z" style="fill:#263238"></path><path d="M148.75,359.36c-.14-.05,4-13.87,9.31-30.88s9.68-30.76,9.81-30.72-4,13.86-9.31,30.88S148.89,359.4,148.75,359.36Z" style="fill:#263238"></path><path d="M181.47,364.88s.38.11,1.12.25a8,8,0,0,0,3.26,0A8.41,8.41,0,0,0,192,360c.41-1.07.79-2.24,1.23-3.45,1.71-4.86,3.75-10.63,6-17a14.49,14.49,0,0,0,1.24-5,8.28,8.28,0,0,0-1.63-4.93,8.66,8.66,0,0,0-4.44-3.06l-5.47-2a8.28,8.28,0,0,0-9.73,3.34,11.53,11.53,0,0,0-1.1,2.45c-.3.85-.61,1.7-.91,2.53-.6,1.68-1.18,3.32-1.76,4.92L172.22,347c-.51,1.42-1,2.8-1.48,4.12a9.62,9.62,0,0,0-.79,3.85,8.36,8.36,0,0,0,2.76,6,12.77,12.77,0,0,0,4.59,2.33l3.1,1.16.8.31.27.13-.29-.08-.82-.26-3.13-1.07a12.65,12.65,0,0,1-4.71-2.3,8.68,8.68,0,0,1-2.94-6.22,10.14,10.14,0,0,1,.78-4c.47-1.32.95-2.7,1.45-4.12l3.22-9.1c.57-1.6,1.15-3.25,1.74-4.92.3-.84.6-1.69.91-2.54a11.6,11.6,0,0,1,1.14-2.56,8.77,8.77,0,0,1,10.33-3.55l5.47,1.95a9.11,9.11,0,0,1,4.68,3.25,8.71,8.71,0,0,1,1.29,7.9c-.28.84-.58,1.64-.86,2.44-2.3,6.39-4.37,12.15-6.12,17-.44,1.21-.83,2.36-1.27,3.45a8.53,8.53,0,0,1-6.45,5.18,7.74,7.74,0,0,1-3.32-.09A6.37,6.37,0,0,1,181.47,364.88Z" style="fill:#e0e0e0"></path><path d="M64.73,235.56s.08,0,.21,0l.6.16,2.31.68,8.67,2.62,30.15,9.26-.3.32-8.58-22.16c-8.77-22.69-16.42-42.6-20.57-53.57l.08.09-7.2-2.31-1.88-.62-.47-.16-.16-.07s.06,0,.17,0l.49.13,1.9.55,7.23,2.19h.07l0,.07c4.3,10.91,12,30.78,20.8,53.48,3,7.83,5.91,15.33,8.55,22.16l.18.48-.48-.15-30.09-9.44-8.62-2.76-2.29-.75-.59-.2Z" style="fill:#263238"></path><path d="M156.33,334.94l-38-18.36-9.08,17.22c10.58,7.76,24.43,16.85,39.48,26.43Z" style="fill:#455a64"></path><polygon points="60.87 280.56 47.64 288.34 77.79 311.11 112.9 309.14 60.87 280.56" style="opacity:0.30000000000000004"></polygon><path d="M148.75,360.23,109.27,333.8s-8.72,12-3.3,21.11l42.28,28.14S142.68,370.49,148.75,360.23Z" style="fill:#e0e0e0;fill-rule:evenodd"></path><path d="M129.93,365.16a78.93,78.93,0,0,1-5.24-7.33,79.65,79.65,0,0,1-4.81-7.62,76.78,76.78,0,0,1,5.24,7.33A77.3,77.3,0,0,1,129.93,365.16Z" style="fill:#263238"></path><path d="M134.53,365.86a13.09,13.09,0,0,1-1.33-2.18c-.77-1.36-1.84-3.24-3.06-5.29s-2.38-3.88-3.21-5.21a13.32,13.32,0,0,1-1.29-2.2,11.17,11.17,0,0,1,1.59,2c.92,1.28,2.12,3.09,3.35,5.15s2.26,4,2.95,5.39A11.24,11.24,0,0,1,134.53,365.86Z" style="fill:#263238"></path></g><g id="freepik--smoke-2--inject-6"><g style="opacity:0.30000000000000004"><path d="M108.06,294.26a22.85,22.85,0,0,0,31.57,16.57c3.42,8.48,13,13.16,22.17,13.44s18-3,26.51-6.34c-4,7.14-.63,16.67,5.66,21.93s14.68,7.15,22.79,8.37q1.08-2.33,2.18-4.63l9.31-21.67s-29.59-28-30.41-27.67-50.7-7.65-50.7-7.65Z" style="fill-rule:evenodd"></path></g><path d="M264.24,323.05a158.73,158.73,0,0,0,3.17-27.14c.32-13.91-1.75-29.24-11.16-35.51-8.95-6-19-5.87-27.16-4.09a57.17,57.17,0,0,0-16,6.2s-.41-11.08-9.24-11.08a20.91,20.91,0,0,0-7.51,1.13,154.28,154.28,0,0,0,12.41-10.11c14.09-12.75,32.16-34,27.9-56.28-6.81-35.6-39.78-45.91-39.78-45.91s9.35-6.69,6.69-17.61-10.17-12.56-10.17-12.56l.05,0-1.34-.68c7.8-4.12,15.58-8.44,22-14.47,7-6.55,12.3-15.48,12.4-25.06.1-9.79-5.29-19-12.65-25.48S197.25,34,188,30.82a189.76,189.76,0,0,0-55.52-9.95C119.22,20.5,104.74,22,95.2,31.23,86,40.06,83.71,54.35,86.84,66.68a52.84,52.84,0,0,0,2.71,7.89,21.4,21.4,0,0,0,.35,5.58c2.56,13.62,14.5,21.5,14.5,21.5a53.47,53.47,0,0,0-6,1.93c-9.16,4-31.67,13.61-36.78,46.27-3.1,19.83,4.69,37.49,22.24,53.94h0c17.67,16.56,22.75,17.38,22.75,17.38S83.91,258.71,116.1,259c0,0,0,10.24-4.21,15.35S108.12,290,108.12,290s.29,6.18,11.93,11.37c5.09,2.28,9.9.6,13.7-2h0a35,35,0,0,0,8.08-8.22,14.36,14.36,0,0,0,.05,8.5h0c1.31,4.21,4.82,9.21,13.41,13.29,18.1,8.6,38.87-8.24,39.61-8.85v0a53,53,0,0,0-2.09,9.52c-.59,4.94-.39,10.57,2.7,13.65,5.83,5.84,28.63,12.8,31.84,13.76l.37.12s-8.34,29.57,8.4,38.27l30.23,18.62A334.07,334.07,0,0,0,264.24,323.05Z" style="fill:#e0e0e0"></path><g style="opacity:0.30000000000000004"><path d="M137.34,123.16c-.08.3-4.59-.59-11.49-3.32A75.19,75.19,0,0,1,114.18,114a61.39,61.39,0,0,1-12.5-10.11,49.24,49.24,0,0,1-8.91-13.45,41.37,41.37,0,0,1-3.43-12.71,31.5,31.5,0,0,1,.3-8.85c.4-2.06.82-3.13,1-3.1s.11,1.18,0,3.21a41.29,41.29,0,0,0,.52,8.5,44.45,44.45,0,0,0,3.78,12,50.85,50.85,0,0,0,8.63,12.68A66,66,0,0,0,115.47,112a91.88,91.88,0,0,0,11.12,6.19C133.17,121.26,137.47,122.78,137.34,123.16Z"></path></g><g style="opacity:0.30000000000000004"><path d="M185.44,219.75c.13.24-3.6,2.6-10.48,4.13a46.87,46.87,0,0,1-12.28,1,47.07,47.07,0,0,1-27.91-10.67,47.2,47.2,0,0,1-8.47-8.95c-4.1-5.73-5.31-10-5-10.07s2.19,3.72,6.51,8.94a52.4,52.4,0,0,0,8.5,8.2,48.88,48.88,0,0,0,26.57,10.15,52.79,52.79,0,0,0,11.8-.43C181.33,221.06,185.27,219.34,185.44,219.75Z"></path></g></g><g id="freepik--fire-2--inject-6"><path d="M282.8,360.09s-1.71-9.12.52-11.4c0,0-8.18-11.07-8.22-14.35S278,323.13,278,323.13s-6.25,11.95-11.31,7.34-2.95-13.16,0-20.84-12.07-23.94-12.07-23.94,7,19.13,2.12,24.23-3,12.09-3,12.09,10.19,3.36,5,12.33-9.65,12.26-9.65,12.26l4.2-11.09-3.47-10s.16,23-7.32,15.91-1.52-14.73-9.44-20.92l-.81-8.33s-4.94,6.82-3.14,11.44,3.14,4.49,2.91,9.4-2.49,10.82,1.63,15.88,9.34,9.59,10.71,16.94-.79,11.34,4.21,13.33,11.61,4.17,11.61,4.17l23.05-23.71" style="fill:#FF725E;fill-rule:evenodd"></path><g style="opacity:0.30000000000000004"><path d="M253.5,357.08c.76-1.33,2.18-2.69,3.62-2.16s1.78,2.47,3.12,3.13a2.69,2.69,0,0,0,2.68-.36,6.7,6.7,0,0,0,1.8-2.15,29.51,29.51,0,0,0,4.14-13.25c2.05,1.42,3.1,3.88,3.75,6.29s1,4.92,2.18,7.12c.74,1.41,1.78,2.65,2.49,4.07a5.2,5.2,0,0,1,.34,4.58l-12.45,13.94c-4.43-.91-10.45-4.05-12.31-8.17A14.58,14.58,0,0,1,253.5,357.08Z" style="fill-rule:evenodd"></path></g><path d="M249.39,275.48l3-5.74c5,4.78,2.54,14,2.54,14C253.28,277,249.39,275.48,249.39,275.48Z" style="fill:#FF725E;fill-rule:evenodd"></path><path d="M232.85,302.51a23.26,23.26,0,0,0-.45,8.08C227.33,306.55,232.85,302.51,232.85,302.51Z" style="fill:#FF725E;fill-rule:evenodd"></path><path d="M248.73,289.24a.27.27,0,0,0-.18.34.33.33,0,0,0,.35.2.43.43,0,0,0,.33-.24.14.14,0,0,0,0-.09.11.11,0,0,0-.06-.09.74.74,0,0,0-.22-.14.22.22,0,0,0-.24.06Z" style="fill:#FF725E;fill-rule:evenodd"></path><path d="M250.94,295.59a1.11,1.11,0,0,1,1.69-.85,1.46,1.46,0,0,1-1,2,1.23,1.23,0,0,1-.54-1.11Z" style="fill:#FF725E;fill-rule:evenodd"></path><path d="M274,294.5a1,1,0,1,0,.06-.1Z" style="fill:#FF725E;fill-rule:evenodd"></path><path d="M247.82,260.73l1.64.84a1.52,1.52,0,0,1-1.59.47,1,1,0,0,1,.19-1.48Z" style="fill:#FF725E;fill-rule:evenodd"></path><path d="M209.07,305.69A.85.85,0,0,1,210,305c.4.08.58.73.21.93s-.74-.17-1-.49Z" style="fill:#FF725E;fill-rule:evenodd"></path><path d="M229.48,271.54a.93.93,0,1,0,.06-.31Z" style="fill:#FF725E;fill-rule:evenodd"></path><path d="M251.28,285a.94.94,0,1,0,1.6-.63,1,1,0,0,0-1.54.31Z" style="fill:#FF725E;fill-rule:evenodd"></path><path d="M222.68,296.24a.76.76,0,0,1,1-.53.69.69,0,0,1,.05,1.13.63.63,0,0,1-.9-.61Z" style="fill:#FF725E;fill-rule:evenodd"></path><path d="M227.7,297.3c.37-.44.92-.7,1.3-.29a1.32,1.32,0,0,1-.12,1.67c-.42.29-1-.25-1-.92Z" style="fill:#FF725E;fill-rule:evenodd"></path></g><g id="freepik--airplane-part-1--inject-6"><path d="M614.28,311l-144.77,9.57-9.7,11.15,6.87,34.8-8.47,18.84,7.89,19.38,148-11.83c5.61-.58,12.08-1,17.51-2.51s16.42-2.78,24.94-5.85c18-6.49,37.71-17.22,40.54-29,0,0,3.69-11.32-8-18.37l-21-14.62a69.11,69.11,0,0,0-21.63-9.34A102.91,102.91,0,0,0,614.28,311Z" style="fill:#fff"></path><path d="M614.28,311s2.47-.3,7.19-.43A102.42,102.42,0,0,1,642,312.13,69.44,69.44,0,0,1,671.7,324.8l16.62,11.57a38.53,38.53,0,0,1,4.4,3.27,16.53,16.53,0,0,1,3.4,4.48,16.29,16.29,0,0,1,1.15,11.46h0a19.68,19.68,0,0,1-4.74,8.33,48.24,48.24,0,0,1-7.46,6.6,88.19,88.19,0,0,1-8.74,5.46c-3.06,1.68-6.25,3.23-9.53,4.71s-6.68,2.8-10.16,4.07a84.72,84.72,0,0,1-10.86,3c-3.72.81-7.51,1.45-11.3,2.25-1.9.38-3.76,1-5.71,1.36s-3.9.69-5.88.93c-7.91.92-16,1.46-24.27,2.14l-25.2,2-52.69,4.22L466.12,405l-.19,0-.07-.18q-4-9.84-7.88-19.37l0-.1,0-.1q4.32-9.6,8.48-18.84l0,.15q-3.57-18.09-6.86-34.81l0-.11.07-.08q5-5.7,9.71-11.15l.06-.07h.1l105-6.85,29.4-1.89,7.75-.47,2-.12.67,0-.67.06-2,.15-7.75.54-29.4,2-105,7,.15-.08L460,331.86l.06-.2q3.3,16.71,6.88,34.81l0,.07,0,.07-8.47,18.85v-.2l7.89,19.37-.25-.16,54.61-4.37,52.69-4.21,25.2-2c8.25-.68,16.36-1.23,24.25-2.13,2-.24,3.92-.52,5.84-.92s3.78-1,5.7-1.36c3.82-.8,7.6-1.44,11.31-2.24a85.71,85.71,0,0,0,10.8-2.93c3.47-1.26,6.85-2.62,10.14-4.05s6.45-3,9.5-4.68a87.35,87.35,0,0,0,8.7-5.43,48,48,0,0,0,7.41-6.52,19.52,19.52,0,0,0,4.66-8.15v0a15.51,15.51,0,0,0-4.43-15.55,36.42,36.42,0,0,0-4.33-3.24l-16.61-11.61A69.43,69.43,0,0,0,642,312.35a105.3,105.3,0,0,0-20.49-1.68c-2.36.05-4.16.14-5.37.21Z" style="fill:#263238"></path><polygon points="652.28 340.36 665.29 338.88 658.37 325.7 650.86 326.51 652.28 340.36" style="fill:#263238"></polygon><path d="M670.55,338.29l17.54-2-17.3-11.93-8,.87C664.59,328.24,668.39,334.65,670.55,338.29Z" style="fill:#263238"></path><path d="M645.62,327.08l-6.8.73c-2.06,1-3.42,14.47-3.42,14.47L647.05,341Z" style="fill:#263238"></path><path d="M694.22,341.51a2.32,2.32,0,0,1-.56.26l-1.65.66-6.12,2.35-20.51,7.65.16-.18c-.2.79-.41,1.63-.63,2.47a144.88,144.88,0,0,1-7.79,22.3c-1.23,2.77-2.33,5-3.11,6.45-.4.75-.72,1.32-.94,1.71a2.89,2.89,0,0,1-.36.58,4.55,4.55,0,0,1,.27-.63c.22-.45.5-1,.84-1.75.74-1.52,1.78-3.73,3-6.5a159.86,159.86,0,0,0,7.62-22.29c.21-.84.43-1.68.63-2.46l0-.14.13,0,20.57-7.51,6.18-2.19,1.68-.57A3.25,3.25,0,0,1,694.22,341.51Z" style="fill:#e0e0e0"></path><rect x="483.88" y="352.95" width="8.58" height="15.92" rx="3.11" transform="translate(-40.78 62.95) rotate(-7.08)" style="fill:#263238"></rect><rect x="504.17" y="350.69" width="8.58" height="15.92" rx="3.11" transform="translate(-40.34 65.43) rotate(-7.08)" style="fill:#263238"></rect><rect x="524.45" y="348.42" width="8.58" height="15.92" rx="3.11" transform="translate(-39.92 67.94) rotate(-7.09)" style="fill:#263238"></rect><rect x="544.74" y="346.16" width="8.58" height="15.92" rx="3.11" transform="translate(-39.48 70.4) rotate(-7.08)" style="fill:#263238"></rect><rect x="565.02" y="343.9" width="8.58" height="15.92" rx="3.11" transform="translate(-39.04 72.89) rotate(-7.08)" style="fill:#263238"></rect><rect x="585.31" y="341.63" width="8.58" height="15.92" rx="3.11" transform="translate(-38.62 75.4) rotate(-7.09)" style="fill:#263238"></rect><path d="M474.57,404.7s39.74-19.17,67.95-23.8,35.74,2.72,35.24,6.94C577,394.24,549,399,549,399Z" style="fill:#e0e0e0"></path><path d="M474.57,404.7l74.44-6h0A147.49,147.49,0,0,0,565,395a51.76,51.76,0,0,0,8.05-3.06,12.89,12.89,0,0,0,3.55-2.44,3.14,3.14,0,0,0,.87-1.81,3,3,0,0,0-.11-1,3.15,3.15,0,0,0-.37-1,8.5,8.5,0,0,0-4.06-3.48,22,22,0,0,0-5.18-1.66,48.92,48.92,0,0,0-10.69-.81c-1.76,0-3.51.17-5.23.27s-3.44.32-5.12.57-3.36.44-5,.75l-4.84.93a247.11,247.11,0,0,0-33,10.19c-9.2,3.48-16.52,6.62-21.57,8.82l-5.78,2.57-1.51.68-.51.22.49-.27,1.48-.72c1.31-.63,3.24-1.54,5.75-2.67,5-2.25,12.32-5.45,21.52-9a242.76,242.76,0,0,1,33-10.32l4.86-.94c1.64-.31,3.32-.51,5-.77s3.41-.37,5.14-.57,3.5-.25,5.27-.28a50.2,50.2,0,0,1,10.81.81,22.46,22.46,0,0,1,5.3,1.71,9,9,0,0,1,4.29,3.69,3.74,3.74,0,0,1,.42,1.11,3.59,3.59,0,0,1,.12,1.18,3.64,3.64,0,0,1-1,2.13,13.58,13.58,0,0,1-3.69,2.56,52.71,52.71,0,0,1-8.15,3.08,146.67,146.67,0,0,1-16.1,3.73h0Z" style="fill:#263238"></path><path d="M479.8,404.22S515,386.94,542,383s34,1.5,33.49,4.67c-.82,4.82-27.58,9.83-27.58,9.83Z" style="fill:#e0e0e0"></path><path d="M479.8,404.22l68-6.93h0c4.81-.94,9.81-2.07,14.9-3.52a67.88,67.88,0,0,0,7.59-2.58,18.78,18.78,0,0,0,3.57-1.9,3.56,3.56,0,0,0,1.24-1.42,2,2,0,0,0-.33-1.74,1.67,1.67,0,0,0-.37-.47,6,6,0,0,0-.43-.44,9.26,9.26,0,0,0-1-.71,15.64,15.64,0,0,0-2.28-1,27.79,27.79,0,0,0-4.91-1.08,58.5,58.5,0,0,0-9.87-.41c-1.62,0-3.23.17-4.82.26s-3.16.29-4.72.47l-4.6.6-4.47.76c-5.86,1.14-11.35,2.62-16.45,4.14s-9.77,3.17-14,4.75c-8.5,3.11-15.22,6-19.86,8l-5.32,2.38-1.38.63-.48.2s.14-.09.45-.25l1.36-.68c1.2-.58,3-1.43,5.28-2.47,4.62-2.08,11.33-5,19.82-8.2,4.24-1.6,8.93-3.21,14-4.81s10.6-3,16.48-4.2l4.49-.78,4.62-.61c1.55-.18,3.14-.31,4.73-.47s3.21-.23,4.85-.27a59.56,59.56,0,0,1,10,.4,28.25,28.25,0,0,1,5,1.11,15.9,15.9,0,0,1,2.38,1.09,9.71,9.71,0,0,1,1.09.76,4.35,4.35,0,0,1,.48.48,2.24,2.24,0,0,1,.42.54,2.46,2.46,0,0,1,.38,2.19,4.09,4.09,0,0,1-1.42,1.67,19.1,19.1,0,0,1-3.67,2,70.54,70.54,0,0,1-7.66,2.6c-5.11,1.44-10.12,2.57-15,3.5h0Z" style="fill:#263238"></path><path d="M522.47,379.44a3.24,3.24,0,0,1-.21-.59l-.51-1.74c-.23-.75-.47-1.68-.74-2.76s-.58-2.32-.87-3.7c-.63-2.74-1.23-6-1.82-9.7s-1.07-7.73-1.47-12a188.22,188.22,0,0,1-.7-21.95c0-1.41.1-2.67.17-3.79s.12-2.07.19-2.86.13-1.33.17-1.8a3.41,3.41,0,0,1,.09-.62,2.78,2.78,0,0,1,0,.63c0,.47,0,1.07-.07,1.81s-.08,1.74-.1,2.85-.08,2.38-.09,3.79a215.25,215.25,0,0,0,.85,21.89c.4,4.26.89,8.31,1.42,12s1.13,6.95,1.71,9.7c.26,1.38.54,2.61.79,3.7s.45,2,.65,2.78.31,1.31.42,1.76A2.7,2.7,0,0,1,522.47,379.44Z" style="fill:#e0e0e0"></path><path d="M618.3,392.08a4.74,4.74,0,0,1-.37-.75c-.24-.56-.57-1.29-1-2.22s-.93-2.15-1.44-3.56-1.16-3-1.74-4.77c-.29-.89-.61-1.83-.93-2.8s-.6-2-.92-3.07c-.66-2.11-1.21-4.41-1.81-6.83a149.51,149.51,0,0,1-2.82-15.93,151.87,151.87,0,0,1-.95-16.17c0-2.48,0-4.85.19-7.06.06-1.1.09-2.17.18-3.2s.18-2,.27-2.94c.14-1.88.4-3.56.58-5s.39-2.76.58-3.79.32-1.79.43-2.38a6.38,6.38,0,0,1,.18-.83,4.67,4.67,0,0,1-.08.84q-.12.9-.33,2.4c-.16,1-.34,2.31-.49,3.79s-.39,3.17-.51,5c-.07.94-.15,1.92-.23,2.94s-.09,2.09-.15,3.19c-.13,2.2-.12,4.56-.14,7,.06,5,.34,10.42,1,16.11A161,161,0,0,0,610.58,368c.6,2.4,1.13,4.7,1.77,6.81.3,1.06.57,2.1.88,3.07s.62,1.91.9,2.8c.55,1.8,1.17,3.38,1.66,4.79s1,2.61,1.36,3.58.66,1.69.88,2.25A5.48,5.48,0,0,1,618.3,392.08Z" style="fill:#263238"></path><path d="M613.77,381s-1.61-15.92-3-20.11-1.7-12.56-2.1-13.15,5.07-7.59,5.07-7.59l-5.17-5.64-.93-16.6s-1.47,15-1,22.65a194.9,194.9,0,0,0,2.53,22.14C610.21,367.48,613.77,381,613.77,381Z" style="fill:#263238"></path><path d="M518.69,338.31l-2.46-16.73c-.07,9.76.06,20,.92,30.14.15-2.71,1.53-5.22,1.86-7.91A20.75,20.75,0,0,0,518.69,338.31Z" style="fill:#e0e0e0"></path><path d="M500.23,395.41a22.07,22.07,0,0,1,.52,6.75,10.86,10.86,0,0,1-.52-3.36A10.71,10.71,0,0,1,500.23,395.41Z" style="fill:#263238"></path><path d="M512.76,390.72a40.89,40.89,0,0,1,.88,5,18,18,0,0,1,.36,5.09,43.25,43.25,0,0,1-.88-5A18.37,18.37,0,0,1,512.76,390.72Z" style="fill:#263238"></path><path d="M526.35,386.85a39.64,39.64,0,0,1,1.31,6.25,38.84,38.84,0,0,1,.8,6.34,39,39,0,0,1-1.31-6.25A40.08,40.08,0,0,1,526.35,386.85Z" style="fill:#263238"></path><path d="M541.41,383.43A102.61,102.61,0,0,1,543.13,398a50.18,50.18,0,0,1-1.12-7.26A53.36,53.36,0,0,1,541.41,383.43Z" style="fill:#263238"></path><path d="M556,381.72a89,89,0,0,1,1.61,13.69,47.88,47.88,0,0,1-1.06-6.82A47.3,47.3,0,0,1,556,381.72Z" style="fill:#263238"></path><path d="M495,397.44a50.93,50.93,0,0,0,19.83,1.34c11.24-1.39,49.49-5.63,49.49-5.63l-16.43,4.39-68.07,6.68Z" style="opacity:0.30000000000000004"></path><path d="M587.54,371a3.7,3.7,0,0,1,.12.92,7.49,7.49,0,0,1,0,1.1c0,.42,0,.91-.08,1.45a19.35,19.35,0,0,1-.71,3.72,21.16,21.16,0,0,1-4.49,8.05,19.27,19.27,0,0,1-2.78,2.57c-.42.34-.84.59-1.19.83a8,8,0,0,1-1,.55,3.15,3.15,0,0,1-.85.38c0-.08,1.12-.71,2.76-2a22.61,22.61,0,0,0,2.65-2.59,25.35,25.35,0,0,0,2.6-3.72,24.72,24.72,0,0,0,1.79-4.16,22.84,22.84,0,0,0,.81-3.62C587.53,372.35,587.44,371,587.54,371Z" style="fill:#263238"></path><path d="M583.51,370.89a.84.84,0,0,1-.29-.1l-.82-.33c-.36-.16-.81-.32-1.35-.51s-1.16-.4-1.87-.61a44.6,44.6,0,0,0-12.35-1.67,132.25,132.25,0,0,0-18.5,1.49A222,222,0,0,0,526,373.33a216.31,216.31,0,0,0-39.05,13.42c-4.8,2.23-8.62,4.17-11.23,5.56l-3,1.61-.79.4-.28.13a1.12,1.12,0,0,1,.25-.17l.77-.46,3-1.69c2.59-1.44,6.39-3.44,11.18-5.71a207,207,0,0,1,39.08-13.6,217.37,217.37,0,0,1,22.42-4.14,130.08,130.08,0,0,1,18.58-1.38,43.46,43.46,0,0,1,12.4,1.85A25.23,25.23,0,0,1,583.51,370.89Z" style="fill:#263238"></path><circle cx="304.22" cy="379.56" r="0.88" style="fill:#e0e0e0"></circle><path d="M439.41,319.77l5,18.77-7.2,13.53-.55,22.73-6.57,9.1,6.93,4.75.79,13.18-28.29-10.27s0-31.59,0-31.33,1.34-23.47,1.9-22.94S439.41,319.77,439.41,319.77Z" style="fill:#e0e0e0"></path><path d="M249.07,373.73l.85-18.49,11.19-14.58,8.52-25.7,170,3.88-3.87,14.91-9.18,10.09,3.53,18.23-10.5,5.63-2.8,12.83,11.74,10,9.25,11.3-171.45-3.77" style="fill:#fff"></path><rect x="385.5" y="351.97" width="8.58" height="15.92" rx="3.11" transform="translate(8.02 -8.49) rotate(1.26)" style="fill:#263238"></rect><rect x="368.22" y="351.59" width="8.58" height="15.92" rx="3.11" transform="translate(8.01 -8.11) rotate(1.26)" style="fill:#263238"></rect><rect x="350.95" y="351.21" width="8.58" height="15.92" rx="3.11" transform="translate(7.99 -7.73) rotate(1.26)" style="fill:#263238"></rect><rect x="332.02" y="350.79" width="8.58" height="15.92" rx="3.11" transform="translate(7.98 -7.32) rotate(1.26)" style="fill:#263238"></rect><rect x="297.13" y="350.02" width="8.58" height="15.92" rx="3.11" transform="translate(7.95 -6.55) rotate(1.26)" style="fill:#263238"></rect><rect x="278.83" y="349.16" width="8.58" height="15.92" rx="3.11" transform="translate(7.93 -6.15) rotate(1.26)" style="fill:#263238"></rect><rect x="314.93" y="350.41" width="8.58" height="15.92" rx="3.11" transform="translate(7.97 -6.94) rotate(1.26)" style="fill:#263238"></rect><path d="M313,399.5a4.3,4.3,0,0,1-.23-.83l-.57-2.41c-.25-1.05-.54-2.34-.8-3.85s-.62-3.21-.86-5.13c-.13-.95-.27-1.95-.42-3s-.22-2.14-.34-3.27c-.27-2.25-.38-4.67-.53-7.21a136.44,136.44,0,0,1,2.51-33c.54-2.49,1-4.87,1.62-7.05.29-1.1.54-2.17.83-3.17s.6-2,.87-2.9c.53-1.86,1.14-3.49,1.63-4.94s1-2.68,1.37-3.68l.93-2.3a5.94,5.94,0,0,1,.35-.79,4.58,4.58,0,0,1-.26.83l-.83,2.33c-.38,1-.83,2.24-1.28,3.7s-1,3.1-1.55,4.95l-.84,2.9c-.29,1-.52,2.08-.8,3.17-.58,2.19-1.05,4.56-1.57,7a142.6,142.6,0,0,0-2.51,32.9c.15,2.53.24,4.95.49,7.19.11,1.13.18,2.22.31,3.26s.26,2,.39,3c.21,1.91.54,3.62.78,5.13s.48,2.8.71,3.85.35,1.84.47,2.44A5.29,5.29,0,0,1,313,399.5Z" style="fill:#e0e0e0"></path><path d="M311.92,393.43c1-5.66,2-11.6.93-17.24-.49-2.67-1.4-5.15-1.77-7.86-.7-5.1.63-10.25,1.65-15.23s1.68-10.67-.16-15.14a136.11,136.11,0,0,0-.7,55.2" style="fill:#e0e0e0"></path><circle cx="308.53" cy="333.02" r="0.88" style="fill:#e0e0e0"></circle><path d="M361.4,380.41a5.39,5.39,0,0,1-1,.72l-2.84,1.8c-2.41,1.5-5.75,3.54-9.46,5.77l-5.24,3.12-2.3,1.35a4.8,4.8,0,0,0-.93.66,1.73,1.73,0,0,0-.45.88,4.4,4.4,0,0,0,.21,1.8,11,11,0,0,1,.32,1.43,2.88,2.88,0,0,1,0,.93q-.1.31-.12.3a5.77,5.77,0,0,0,0-1.2,12.49,12.49,0,0,0-.4-1.37,4.64,4.64,0,0,1-.29-2,2.09,2.09,0,0,1,.52-1.09,4.89,4.89,0,0,1,1-.76l2.27-1.39,5.22-3.16c3.71-2.23,7.08-4.22,9.54-5.63l2.92-1.66A6,6,0,0,1,361.4,380.41Z" style="fill:#ebebeb"></path><path d="M269.12,404.22h3.22l9.33.06c8.15,0,20.06,0,35.09,0,30.05-.13,72.57-.45,122.43-1l-.18.4-10.63-13,0,0c-3.68-3.13-7.69-6.54-11.74-10l-.12-.1,0-.14c.87-4,1.83-8.41,2.79-12.83l0-.12.1,0c3.3-1.78,6.89-3.7,10.5-5.63l-.13.27c-1.12-5.78-2.32-12-3.54-18.23l0-.13.09-.1,5.77-6.34,3.41-3.75-.06.11q2-7.55,3.87-14.91l.24.33-170-4,.17-.12c-3.27,9.79-6.1,18.28-8.56,25.68v0l0,0L250,355.3l0-.06c-.3,6-.52,10.65-.68,13.78-.08,1.55-.14,2.72-.18,3.52s-.09,1.19-.09,1.19l0-1.19c0-.8.08-2,.14-3.53.14-3.12.33-7.74.59-13.78v0l0,0c3.08-4,6.78-8.88,11.16-14.6l0,0c2.45-7.4,5.25-15.89,8.49-25.7l0-.12h.13l170,3.79H440l-.08.32q-1.9,7.35-3.87,14.91l0,.07,0,0-3.41,3.75c-2,2.17-3.94,4.34-5.77,6.34l.06-.22c1.22,6.25,2.41,12.45,3.53,18.23l0,.19-.17.09-10.5,5.63.13-.17c-1,4.42-1.92,8.8-2.8,12.82l-.08-.24,11.73,10h0l0,0,10.62,13,.32.39h-.51c-49.87.47-92.39.73-122.44.78-15,0-26.94,0-35.09-.1-4.08,0-7.21-.08-9.33-.13l-2.41-.06Z" style="fill:#263238"></path><path d="M346.11,379.93c.09.12-5.33,4.3-12.09,9.33s-12.32,9-12.41,8.92,5.33-4.29,12.1-9.33S346,379.82,346.11,379.93Z" style="fill:#263238"></path><path d="M350.11,380.59a31.09,31.09,0,0,1-4.19,4,32.22,32.22,0,0,1-4.53,3.55,31.09,31.09,0,0,1,4.19-3.95A32.22,32.22,0,0,1,350.11,380.59Z" style="fill:#263238"></path><path d="M274.54,398.18s-5.42-13.14-5.42-21.54h18.54s.58,14.86,4.34,21.48Z" style="fill:#e0e0e0;fill-rule:evenodd"></path></g><g id="freepik--Ground--inject-6"><polyline points="128.28 405.09 153.35 383.43 185.44 371.02 212.44 389.06 239.24 391.17 252.45 381.16 373.58 404.97" style="fill:#ae7461"></polyline><polygon points="623.23 394.35 605.72 390.09 589.02 394.02 562.94 394.45 544.42 399.19 527.64 399.52 514 396.09 456.27 405.04 649.47 405.18 623.23 394.35" style="fill:#ae7461"></polygon><polygon points="664.31 401.06 658.71 401.06 654.85 401.06 652.72 405.08 669.24 405.08 664.31 401.06" style="fill:#ae7461"></polygon></g><g id="freepik--smoke-1--inject-6"><g style="opacity:0.30000000000000004"><path d="M348.17,317a18.22,18.22,0,0,0,7,14.3,17.21,17.21,0,0,1,3.76,3.23,14.27,14.27,0,0,1,1.75,4.68,28.72,28.72,0,0,0,30.6,20.94,11.19,11.19,0,0,0,16.44,7.84,11.68,11.68,0,0,0,21.82,6c3-5.24,1.51-12-1.42-17.25s-7.31-9.8-12.89-12c-4.53-1.74-9.77-1.89-13.66-4.79-2.7-2-4.37-5.07-5.95-8L390.3,322a6.74,6.74,0,0,0-7.41-4.61L361.34,317"></path></g><path d="M433.53,372.49a13.23,13.23,0,0,1-20.39-15.82c-5.71,4.26-15.34.67-16.87-6.28A32.89,32.89,0,0,1,360,310.67c-.21-1.93-.43-3.87-.64-5.8-14.83-4.72-31-10.53-38.58-24.15-8-14.47-3.33-32.45,2.15-48.07-5.36-4.61-5.43-14-.14-18.71-9.84-.49-18.26-8.72-20.64-18.28s.56-19.9,6.2-28,13.72-14.14,22.22-19.12c10.81-6.34,22.69-11.21,35.15-12.59s25.57.95,36,7.95,17.71,19,17.64,31.51-8.28,25-20.26,28.72c4.52-4.56,13.9-1.21,14.5,5.19,3.61-2.79,9.2-1.59,12.43,1.64s4.52,7.92,5.05,12.46a49.61,49.61,0,0,1-17.7,43.43c11.52,2.78,19.05,15.3,18.33,27.13s-8.32,22.46-18,29.26c5.2,1.36,7.25,9.08,3.42,12.84,4.62-5.78,14-6.22,20-1.92s8.73,12.24,8.14,19.61-4.05,14.26-8.34,20.28" style="fill:#e0e0e0;fill-rule:evenodd"></path><path d="M360.54,76c-28.28,2.34-27.65,22-21.67,34.4s24.21,16.79,35.17,8.41c12.22,5.89,28,2.42,37.37-7.36s12.39-24.9,8.46-37.88c-2.86-9.47-9.31-18-18.1-22.51s-19.86-4.79-28.45.1-14.13,15-12.78,24.84" style="fill:#e0e0e0;fill-rule:evenodd"></path><g style="opacity:0.30000000000000004"><path d="M372.37,210.6c.16.24-2.19,2.27-6.68,4.42l-1.78.8c-.63.28-1.3.49-2,.75a45.41,45.41,0,0,1-4.47,1.39,54.11,54.11,0,0,1-10.62,1.51,53.31,53.31,0,0,1-10.69-.79,45.5,45.5,0,0,1-4.55-1.08c-.71-.21-1.39-.38-2-.62l-1.83-.68c-4.63-1.84-7.11-3.7-7-4s2.94.88,7.55,2.21l1.81.51c.63.17,1.3.29,2,.45,1.36.34,2.85.54,4.4.8a57.83,57.83,0,0,0,20.38-.69c1.54-.36,3-.67,4.35-1.1.67-.2,1.33-.37,1.95-.58l1.77-.62C369.49,211.68,372.15,210.24,372.37,210.6Z"></path></g><g style="opacity:0.30000000000000004"><path d="M412.26,268c.12.13-.48.86-1.68,2.09l-1,1c-.38.36-.83.7-1.3,1.09a33.68,33.68,0,0,1-3.32,2.5l-2,1.33c-.71.46-1.5.85-2.29,1.29a51,51,0,0,1-5.23,2.5,56.16,56.16,0,0,1-26.09,4,52.13,52.13,0,0,1-5.74-.82c-.89-.19-1.76-.32-2.57-.54l-2.33-.67a32.33,32.33,0,0,1-3.91-1.39c-.57-.23-1.1-.43-1.58-.65l-1.27-.66c-1.51-.82-2.3-1.34-2.23-1.5s1,.05,2.62.56l1.33.44c.48.15,1,.27,1.6.43,1.15.3,2.43.73,3.91,1l2.28.48c.8.17,1.64.25,2.51.38,1.72.31,3.59.4,5.54.56a62.34,62.34,0,0,0,25-3.83c1.82-.74,3.58-1.38,5.13-2.19.78-.39,1.57-.72,2.27-1.11l2-1.15c1.33-.68,2.42-1.48,3.44-2.11.49-.32,1-.6,1.4-.89l1.13-.82C411.31,268.33,412.14,267.85,412.26,268Z"></path></g><path d="M607.55,320.41c-1.39-15.48-14-1.17-17.41-5.41a12.54,12.54,0,0,1-.08-15.15c-6,2.6-13.83-2.64-13.72-9.18a30.17,30.17,0,0,1-24-43.14c.22-1.77.44-3.54.65-5.31-12.23-7.36-25.47-16-29.32-29.73-4.1-14.62,3.9-29.68,12.1-42.46-3.81-5.25-1.87-13.67,3.84-16.73-8.68-2.52-14.46-11.66-14.56-20.69S529.77,115,536.51,109s15.25-9.72,23.89-12.37c11-3.37,22.62-5.2,34-3.79s22.63,6.26,30.43,14.72,11.79,20.68,9.07,31.86S621.25,160,609.77,160.72c5-3.12,12.67,1.86,11.85,7.7,3.82-1.73,8.55.53,10.74,4.1s2.36,8,1.87,12.19a45.49,45.49,0,0,1-25,35c9.7,4.92,13.77,17.69,10.62,28.1s-12.18,18.28-22.29,22.3c4.36,2.31,4.56,9.64.34,12.18,5.34-4.18,13.83-2.58,18.29,2.54s5.2,12.77,3.11,19.23-6.64,11.86-11.75,16.33" style="fill:#e0e0e0;fill-rule:evenodd"></path><path d="M575.83,289.59a.24.24,0,0,0-.17.3.3.3,0,0,0,.32.19.38.38,0,0,0,.3-.22.29.29,0,0,0,0-.09s0,0-.06-.08a.55.55,0,0,0-.21-.12.2.2,0,0,0-.22.05Z" style="fill:#FF725E;fill-rule:evenodd"></path><path d="M577.85,295.41a1,1,0,0,1,1.55-.78,1.33,1.33,0,0,1-.9,1.8,1.12,1.12,0,0,1-.49-1Z" style="fill:#FF725E;fill-rule:evenodd"></path><path d="M599,294.41a.92.92,0,1,0,.06-.09Z" style="fill:#FF725E;fill-rule:evenodd"></path><path d="M575,263.43l1.5.77a1.37,1.37,0,0,1-1.45.43.92.92,0,0,1,.17-1.36Z" style="fill:#FF725E;fill-rule:evenodd"></path><path d="M539.44,304.68a.77.77,0,0,1,.83-.6c.37.08.53.67.2.85s-.68-.16-.91-.45Z" style="fill:#FF725E;fill-rule:evenodd"></path><path d="M558.16,273.35a.86.86,0,1,0,.06-.29Z" style="fill:#FF725E;fill-rule:evenodd"></path><path d="M578.16,285.73a.86.86,0,1,0,.06-.29Z" style="fill:#FF725E;fill-rule:evenodd"></path><path d="M551.92,296a.7.7,0,0,1,1-.48.63.63,0,0,1,.05,1,.58.58,0,0,1-.83-.56Z" style="fill:#FF725E;fill-rule:evenodd"></path><path d="M556.53,297c.34-.39.85-.63,1.19-.25a1.19,1.19,0,0,1-.11,1.52c-.38.27-.9-.23-.89-.84Z" style="fill:#FF725E;fill-rule:evenodd"></path><g style="opacity:0.30000000000000004"><path d="M614.18,168.56c.12.08-.27,1-1.3,2.53a22.42,22.42,0,0,1-5.54,5.43A27,27,0,0,1,596.67,181a29.92,29.92,0,0,1-3.36.43c-.57,0-1.16,0-1.75,0a13.29,13.29,0,0,1-1.78-.06,28.66,28.66,0,0,1-3.64-.5,26.63,26.63,0,0,1-3.63-1.12l-1-.37,1.39-.33a26,26,0,0,1-11.55,7.7,26.62,26.62,0,0,1-11.16,1.32,22.21,22.21,0,0,1-7.28-1.89c-1.6-.76-2.38-1.36-2.31-1.48s1,.15,2.63.62a28.19,28.19,0,0,0,7.06,1.08,26.88,26.88,0,0,0,10.34-1.71,25.14,25.14,0,0,0,10.45-7.18l.55-.64.84.32.87.33a25.79,25.79,0,0,0,3.27,1A27.51,27.51,0,0,0,590,179a11.21,11.21,0,0,0,1.63.09c.54,0,1.08,0,1.61,0a31,31,0,0,0,3.1-.32,27.53,27.53,0,0,0,10.12-3.69,28.37,28.37,0,0,0,5.75-4.61C613.37,169.22,614,168.46,614.18,168.56Z"></path></g><g style="opacity:0.30000000000000004"><path d="M590.21,234.34c.17.24-1.42,1.76-4.47,3.55a38.25,38.25,0,0,1-5.62,2.64,41.66,41.66,0,0,1-14.93,2.69,37.57,37.57,0,0,1-6.18-.52c-3.49-.6-5.51-1.47-5.44-1.76s2.22-.07,5.62.08c1.69.09,3.72.1,5.95,0a62.17,62.17,0,0,0,7.22-.82,60.85,60.85,0,0,0,7-1.75c2.13-.69,4-1.4,5.58-2.07C588.11,235,590,234,590.21,234.34Z"></path></g></g><g id="freepik--fire-1--inject-6"><path d="M418,381s1.72-9.12-.52-11.4c0,0,8.18-11.07,8.22-14.35S422.78,344,422.78,344,429,356,434.09,351.34s3-13.16,0-20.84,12.07-23.94,12.07-23.94-7,19.13-2.12,24.23,3,12.08,3,12.08-10.19,3.37-5,12.34,9.64,12.26,9.64,12.26l-4.19-11.09,3.46-10s-.16,23,7.32,15.91,1.52-14.73,9.44-20.92l.81-8.33s4.94,6.82,3.14,11.43-3.14,4.5-2.91,9.41,2.5,10.82-1.63,15.88-9.34,9.59-10.71,16.94.79,11.34-4.21,13.33-11.61,4.17-11.61,4.17l-23-23.71" style="fill:#FF725E;fill-rule:evenodd"></path><g style="opacity:0.30000000000000004"><path d="M447.31,377.94c-.77-1.33-2.19-2.68-3.63-2.15s-1.78,2.47-3.12,3.13a2.72,2.72,0,0,1-2.68-.36,6.73,6.73,0,0,1-1.8-2.16,29.55,29.55,0,0,1-4.14-13.24c-2.05,1.42-3.1,3.88-3.74,6.29s-1,4.92-2.19,7.12c-.74,1.41-1.78,2.64-2.49,4.07a5.2,5.2,0,0,0-.34,4.58l12.45,13.94c4.43-.91,10.45-4.05,12.31-8.17A14.63,14.63,0,0,0,447.31,377.94Z" style="fill-rule:evenodd"></path></g><path d="M451.41,296.35l-3-5.74c-5,4.78-2.54,14-2.54,14C447.52,297.86,451.41,296.35,451.41,296.35Z" style="fill:#FF725E;fill-rule:evenodd"></path><path d="M468,323.38a23.2,23.2,0,0,1,.45,8.07C473.47,327.42,468,323.38,468,323.38Z" style="fill:#FF725E;fill-rule:evenodd"></path><path d="M405.18,311.64a.26.26,0,0,0-.18.33.34.34,0,0,0,.34.21.45.45,0,0,0,.33-.25.1.1,0,0,0,0-.09s0-.06-.07-.09a.69.69,0,0,0-.22-.14.24.24,0,0,0-.24.06Z" style="fill:#FF725E;fill-rule:evenodd"></path><path d="M407.38,318a1.12,1.12,0,0,1,1.69-.85,1.45,1.45,0,0,1-1,2,1.22,1.22,0,0,1-.53-1.11Z" style="fill:#FF725E;fill-rule:evenodd"></path><path d="M430.47,316.89a1,1,0,1,0,.07-.1Z" style="fill:#FF725E;fill-rule:evenodd"></path><path d="M404.26,283.12l1.64.84a1.49,1.49,0,0,1-1.58.48,1,1,0,0,1,.18-1.49Z" style="fill:#FF725E;fill-rule:evenodd"></path><path d="M365.51,328.09a.85.85,0,0,1,.92-.66c.4.09.57.73.21.93s-.75-.17-1-.49Z" style="fill:#FF725E;fill-rule:evenodd"></path><path d="M385.92,293.94a.94.94,0,1,0,.07-.32Z" style="fill:#FF725E;fill-rule:evenodd"></path><path d="M407.72,307.43a.94.94,0,1,0,.07-.32Z" style="fill:#FF725E;fill-rule:evenodd"></path><path d="M379.12,318.63a.77.77,0,0,1,1.06-.53.69.69,0,0,1,.05,1.13.62.62,0,0,1-.9-.6Z" style="fill:#FF725E;fill-rule:evenodd"></path><path d="M384.15,319.69c.36-.43.92-.69,1.29-.28a1.32,1.32,0,0,1-.11,1.66c-.42.29-1-.25-1-.92Z" style="fill:#FF725E;fill-rule:evenodd"></path></g><g id="freepik--Wing--inject-6"><path d="M495.3,431.15l-15.95,1.24,7.85-5.65-84.32-45.83a9.12,9.12,0,0,0-4.36-1.11h-28a1.54,1.54,0,0,0-1,2.72l30.22,25.84h0l12.29-.64-5.49,6.45,43.31,37,84.77,1.34Z" style="fill:#fff"></path><path d="M459.07,438.79c7.11-.14,14.39-1.74,20-6.13A161.84,161.84,0,0,0,459.07,438.79Z" style="fill:#e0e0e0"></path><path d="M487,426.78l-85.8-46.52a9.32,9.32,0,0,0-2.83-.46h-4.74c.38.53,51.19,29.23,88.67,50.36Z" style="fill:#FF725E"></path><path d="M485.69,431.91l36.24,20.42,12.84.2-39.42-21.37Z" style="fill:#FF725E"></path><path d="M495.3,431.15l.68.34,2,1.06,7.73,4.15,29,15.69.58.31h-.66l-84.78-1.26h-.08l-.07-.06-43.32-37-.2-.17.17-.2c1.74-2,3.61-4.23,5.49-6.44l.21.42-7.49.39-4.79.25h-.11l-.08-.07-20.79-17.77-5.06-4.33-2.51-2.14L370,383.24l-.62-.54a1.81,1.81,0,0,1-.53-.78,1.8,1.8,0,0,1,1.16-2.29,2.75,2.75,0,0,1,.88-.08h22.22c2.08,0,4.1,0,6.16,0a9.43,9.43,0,0,1,3,.74c.95.44,1.78.95,2.67,1.42l20.27,11,62.07,33.85.17.1-.16.11-7.87,5.64-.06-.19,11.85-.87,3.07-.22,1-.05-1.05.11-3.08.26-11.82,1-.36,0,.3-.22,7.83-5.67v.21L425,393.17l-20.28-11c-.88-.46-1.76-1-2.64-1.4a8.77,8.77,0,0,0-2.85-.7c-2-.06-4.07,0-6.13,0H370.86a2.34,2.34,0,0,0-.73.06,1.25,1.25,0,0,0-.56.37,1.3,1.3,0,0,0-.27,1.28,1.51,1.51,0,0,0,.38.56l.62.53,1.25,1.07,2.51,2.14,5.07,4.33,20.79,17.77-.18-.06,4.79-.25,7.5-.39.6,0-.39.46-5.49,6.45,0-.37L450,451l-.16-.06,84.77,1.43-.08.3-28.9-15.8-7.7-4.23-2-1.1Z" style="fill:#263238"></path><g style="opacity:0.30000000000000004"><path d="M453.37,426.42a3.89,3.89,0,0,0-1.16-2.73,3.75,3.75,0,0,0-2.17-.53c-5.76-.21-22.91,1.72-28.6,2.61l22.88,20.68a11.85,11.85,0,0,0,9.13-8.05C454.47,434.51,453.92,430.4,453.37,426.42Z"></path></g><path d="M448.63,438.65H425.89a8.67,8.67,0,0,1-8.66-8.67v-6.55a8.66,8.66,0,0,1,8.66-8.66h22.74Z" style="fill:#e0e0e0"></path><ellipse cx="448.63" cy="426.67" rx="4.62" ry="12.07" style="fill:#263238"></ellipse><path d="M429.17,414.77a11.93,11.93,0,0,0-11.94,11.94h0a11.94,11.94,0,0,0,11.94,11.94h3.76c-3.78-8.07-5-16,0-23.79Z" style="fill:#FF725E"></path><path d="M448.63,438.65s0-.17,0-.46,0-.76,0-1.3c0-1.16,0-2.8-.05-4.86,0-4.2-.07-10.13-.12-17.26l.22.21-13,0h-7.17c-1.22,0-2.49,0-3.69.09a8.38,8.38,0,0,0-3.42,1.25,8.5,8.5,0,0,0-3.24,3.86,9.33,9.33,0,0,0-.6,2.42c-.06.82,0,1.68,0,2.52v4.93a8.46,8.46,0,0,0,4.44,7.33,8.64,8.64,0,0,0,4,1l7.58,0,11,.09,3,.05.8,0a.9.9,0,0,1,.28,0h-.25l-.76,0-3,.05-11.06.09-7.68,0a9.13,9.13,0,0,1-4.19-1,8.94,8.94,0,0,1-3.35-3.12A8.84,8.84,0,0,1,417,430.1c0-1.61,0-3.26,0-4.94,0-.85,0-1.68,0-2.57a9.66,9.66,0,0,1,.63-2.57,9,9,0,0,1,3.44-4.1,8.91,8.91,0,0,1,3.64-1.33,36.46,36.46,0,0,1,3.75-.08h7.17l13,0h.22v.22c-.05,7.19-.08,13.17-.11,17.4,0,2,0,3.66-.06,4.81,0,.52,0,.94,0,1.25A2.24,2.24,0,0,1,448.63,438.65Z" style="fill:#263238"></path><path d="M405.47,391.77c-.13-.08-14.57,0-21.28,0a6.53,6.53,0,0,0-6.34,4.56,4.18,4.18,0,0,0-.18,1.15l7.87,8s-.47-2.2,3.46-2.68,34.3-1.36,34.3-1.36Z" style="fill:#fff"></path><path d="M405.47,391.77a1.6,1.6,0,0,1,.34.14l.95.49,3.61,1.89,13,7,.68.37-.77,0c-8.38.3-19,.61-30.46,1.16-1.47.08-3,.13-4.36.34a4.91,4.91,0,0,0-1.9.72,1.71,1.71,0,0,0-.79,1.56l.12.8-.55-.57-7.86-8-.07-.07v-.1a6.27,6.27,0,0,1,3.75-5.26,7.48,7.48,0,0,1,3.05-.66h2.88l9.75,0,6.35.07,1.69.06a1.68,1.68,0,0,1,.57.06l-.58,0-1.68,0-6.35.06-9.75.08c-1.86.08-3.91-.26-5.74.66a6.19,6.19,0,0,0-2.38,1.91,5.24,5.24,0,0,0-1.08,2.94l-.07-.16,7.88,8-.43.23a2.21,2.21,0,0,1,1-2.08,5.35,5.35,0,0,1,2.11-.81c1.48-.22,2.94-.27,4.43-.35,11.48-.55,22.08-.82,30.47-1.05l-.09.39-12.95-7.14-3.55-2-.92-.53Z" style="fill:#263238"></path><polygon points="399.75 408.36 423.3 401.45 393.63 402.72 399.75 408.36" style="opacity:0.30000000000000004"></polygon><path d="M423.3,454.79s28-11.32,29.95-10.41,27.67,7.3,27.67,7.3l79.17.87" style="fill:#ae7461"></path></g></svg>
